<mxfile host="app.diagrams.net" modified="2023-08-08T12:00:07.051Z" agent="Mozilla/5.0 (Windows NT 10.0; Win64; x64) AppleWebKit/537.36 (KHTML, like Gecko) Chrome/115.0.0.0 Safari/537.36" version="21.6.6" etag="bwXAqY0hpjdwMsofxn1B" type="github">
  <diagram name="Page-1" id="84xEn-sM_7hHBgRWKXf7">
    <mxGraphModel>
      <root>
        <mxCell id="0" />
        <mxCell id="1" parent="0" />
      </root>
    </mxGraphModel>
  </diagram>
</mxfile>
